inDegrees=no
num_controls=7
num_derivatives=13
num_iterations=131
num_multipliers=7
num_parameters=0
num_slacks=7
num_states=26
objective=5.514507
objective_accelerations=0.741161
objective_balance=0.051519
objective_effort=0.321905
objective_height=4.328006
objective_ligament=0.071916
solver_duration=1485.282529
status=Solve_Succeeded
success=true
DataType=double
version=3
OpenSimVersion=4.4-2022-07-23-0e9fedc
endheader
time	/jointset/ground_pelvis/pelvis_tilt/value	/jointset/ground_pelvis/pelvis_tx/value	/jointset/ground_pelvis/pelvis_ty/value	/jointset/hip_l/hip_flexion_l/value	/jointset/hip_l/hip_adduction_l/value	/jointset/hip_l/hip_rotation_l/value	/jointset/back/lumbar_extension/value	/jointset/patellofemoral_l/patellar_flexion_l/value	/jointset/knee_l/knee_flexion_l/value	/jointset/knee_l/knee_adduction_l/value	/jointset/knee_l/knee_rotation_l/value	/jointset/ankle_l/ankle_angle_l/value	/jointset/subtalar_l/subtalar_angle_l/value	/jointset/ground_pelvis/pelvis_tilt/speed	/jointset/ground_pelvis/pelvis_tx/speed	/jointset/ground_pelvis/pelvis_ty/speed	/jointset/hip_l/hip_flexion_l/speed	/jointset/hip_l/hip_adduction_l/speed	/jointset/hip_l/hip_rotation_l/speed	/jointset/back/lumbar_extension/speed	/jointset/patellofemoral_l/patellar_flexion_l/speed	/jointset/knee_l/knee_flexion_l/speed	/jointset/knee_l/knee_adduction_l/speed	/jointset/knee_l/knee_rotation_l/speed	/jointset/ankle_l/ankle_angle_l/speed	/jointset/subtalar_l/subtalar_angle_l/speed	/forceset/tau_hip_flexion_l	/forceset/tau_hip_adduction_l	/forceset/tau_hip_rotation_l	/forceset/tau_knee_flexion_l	/forceset/tau_ankle_angle_l	/forceset/tau_subtalar_angle_l	/forceset/tau_lumbar_extension	lambda_cid13_p0	lambda_cid13_p1	lambda_cid13_p2	lambda_cid13_p3	lambda_cid13_p4	lambda_cid13_p5	lambda_cid14_p0	/jointset/ground_pelvis/pelvis_tilt/accel	/jointset/ground_pelvis/pelvis_tx/accel	/jointset/ground_pelvis/pelvis_ty/accel	/jointset/hip_l/hip_flexion_l/accel	/jointset/hip_l/hip_adduction_l/accel	/jointset/hip_l/hip_rotation_l/accel	/jointset/back/lumbar_extension/accel	/jointset/patellofemoral_l/patellar_flexion_l/accel	/jointset/knee_l/knee_flexion_l/accel	/jointset/knee_l/knee_adduction_l/accel	/jointset/knee_l/knee_rotation_l/accel	/jointset/ankle_l/ankle_angle_l/accel	/jointset/subtalar_l/subtalar_angle_l/accel	gamma_cid13_p0	gamma_cid13_p1	gamma_cid13_p2	gamma_cid13_p3	gamma_cid13_p4	gamma_cid13_p5	gamma_cid14_p0
1.5	-0.4478019000924723	-0.06487254964395096	0.7535959769170832	1.20993596462186	-0.4320341562236713	-0.226561282983797	-0.2304200483955969	0.7432018614539747	0.743201861453971	-0.1490954902402987	-0.1470156760834811	0.03409221237663302	-0.0658674868928705	0.891710817953278	0.3712242416538734	0.5587709120531564	-2.725806532066207	0.2108803647828083	-0.6820247264047641	0.3003602097816156	-1.851773573392424	-1.851773573392131	-0.08061675060680272	0.132867334149557	-0.1538710728700538	0.1630099913840857	-0.2114974555046625	0.02256802373704921	-0.004319040661968112	-0.1789812411057656	0.07664813148142476	0.05200332710516737	0.1926426654478702	-8.04913461870755	-23.56816827227473	6.154267798104619	-10.10945756560979	-519.4345825501281	-61.04087808320552	-27.88617646879176	0.8408543263969659	0.843340569254859	-0.5008839107611766	-1.517935933059705	0.6730393823777342	-0.09343577931308318	1.595554073865984	-1.179752264187496	-1.179752264187477	0.109259594431199	0.2641033846358758	-0.2952852893880296	0.570572267006154	2.326113909997694e-07	9.656029308845025e-07	-8.605610630428828e-07	1.73440975988892e-07	4.639378932147682e-07	-3.61590071425263e-07	3.030190795809801e-07
1.51	-0.4388429580885954	-0.06111848397710496	0.7591575584106318	1.182603810781308	-0.4298932210173661	-0.23338597147004	-0.2273381133980585	0.7246273226587493	0.724627322658736	-0.1498986127747081	-0.1456755655778858	0.03253869357709022	-0.06421058053572118	0.8999413495311108	0.3795427458810282	0.5534274961913227	-2.740247156931628	0.21728182368616	-0.6828189863074423	0.3160023659060579	-1.862879431263956	-1.862879431263622	-0.08000876346586806	0.1351434734094191	-0.1567930766297006	0.1683610316963537	-0.2041965987359569	0.02190154659669888	-0.004050425082788372	-0.1768229100850116	0.07530314461338664	0.05069821671155741	0.1868917294185635	-8.224166422209858	-23.00493470421648	6.10356321009411	-9.753202672526971	-515.0501842949134	-61.19033266522553	-28.70884038006976	0.7937244597450979	0.8192222469686987	-0.5686540150868771	-1.350549461432153	0.6198818228912529	-0.05805378289592542	1.54488280863355	-1.037850473655835	-1.037850473649828	0.03659427677608122	0.2074586386758616	-0.2846954195485873	0.5157494030672357	2.311824868361373e-07	1.050777423122974e-06	-8.091044683933653e-07	1.86919135183766e-07	4.876681075237721e-07	-3.331948785557113e-07	3.046008427053671e-07
1.52	-0.4298057963916852	-0.05728260988848299	0.7646621890273236	1.155138565952471	-0.427689034686311	-0.24021572909274	-0.2241004895538957	0.7059493556998135	0.7059493556997776	-0.1506956502371684	-0.1443130757912606	0.030957147239892	-0.06250048787750306	0.907354756559687	0.3875859260090673	0.5473807366818048	-2.752424729723006	0.2235305897326043	-0.683038553696146	0.3314979791065101	-1.87245920613628	-1.872459206135907	-0.07939973621087094	0.1373431903498595	-0.1594765804011689	0.1736472515978282	-0.1968957419672656	0.02123506945635056	-0.003781809503778805	-0.1746645790642372	0.07395815774535457	0.0493931063179549	0.1811407933892398	-8.403008441138134	-22.44349612491301	6.055957694367393	-9.417339302083317	-510.7245787876055	-61.37454814873929	-29.53502876152261	0.6774294165455906	0.7882757494317746	-0.6415526402980005	-1.065325518250872	0.6425008109962703	0.02150272348178704	1.566245489067898	-0.8745356643461383	-0.8745356643461288	0.1094676172436677	0.2488189207515206	-0.2475852917522555	0.5576081848475081	2.161904468914119e-07	1.14945618825874e-06	-7.086264574412572e-07	2.191291261107269e-07	4.869900355326915e-07	-2.985105472636414e-07	3.009001474854334e-07
1.53	-0.4206985362295855	-0.05336777979086879	0.7701028789262142	1.127562917702366	-0.4254231474466031	-0.2470453228681657	-0.2207088819660422	0.6871834664197555	0.6871834664197385	-0.1514862432580775	-0.1429293673007352	0.02935004810104482	-0.06073782658212884	0.9139550988611205	0.3953218576340143	0.5406448730265861	-2.762314545476467	0.2296150814347556	-0.6827801531584887	0.3467819612505113	-1.880455139014979	-1.880455139014804	-0.07872693078620339	0.1393901665988546	-0.1619048172405334	0.1788669238197118	-0.1896360094854287	0.02041196222473643	-0.003520193624137657	-0.1724144666387426	0.07235227093143178	0.04803277429958677	0.1753605704764834	-8.673932812687125	-21.84118081953282	6.000954110860636	-8.928176588826307	-506.4663198147483	-61.51698146463553	-30.36321766136654	0.6300043929208058	0.7575763153103848	-0.7063695122772429	-0.8922533752351139	0.5864993396006958	0.04326878913181691	1.503237994913454	-0.7226527910745871	-0.7226527911044183	0.04520593078376443	0.1812197711621313	-0.2346499421039941	0.5012791450633827	1.867875751792751e-07	1.262483243347881e-06	-5.560631916676471e-07	2.712416882530298e-07	4.603781593477715e-07	-2.571440063976461e-07	2.915868402746588e-07
1.54	-0.4115295390932748	-0.04937732548774847	0.775472856931724	1.099900082540459	-0.423097400091917	-0.2538692806241676	-0.2171656818731791	0.6683455116726387	0.6683455116726126	-0.1522703044396644	-0.1415254724888246	0.02771982518138977	-0.05892354208369475	0.9197021514016905	0.4027107671102899	0.5332383580056428	-2.769862112083591	0.2355026127279472	-0.6819113498118593	0.3618164801084042	-1.88687229955139	-1.886872299551414	-0.07809336833331187	0.1413804546153923	-0.164101336562914	0.1839718922097817	-0.1823762770035875	0.01958885499313558	-0.003258577744839228	-0.1701643542132048	0.07074638411752027	0.04667244228124325	0.1695803475637219	-8.953162611704281	-21.23983492896297	5.948873909890588	-8.433819176023649	-502.3218722398036	-61.69938363448556	-31.1805652697223	0.5067714643728316	0.7188713196975705	-0.7756829134429687	-0.5968756889834208	0.6031087292043532	0.1435832852762212	1.516352831846222	-0.5587811958885595	-0.5587811958885349	0.1016190228884431	0.2374812742600378	-0.2012417883554045	0.5346674184848054	1.603503316921169e-07	1.365327570462348e-06	-4.178924186723513e-07	3.137025071076387e-07	4.398956617284329e-07	-2.196763937332055e-07	2.820726915961624e-07
1.55	-0.402307365970305	-0.04531479785532816	0.7807654884616603	1.072173558062872	-0.4207137399756634	-0.2606821319033316	-0.213473587895662	0.6494514623525006	0.6494514623524698	-0.1530477725258525	-0.1401024161212565	0.02606888868290438	-0.05705869689146875	0.9245830528990798	0.409727428631443	0.5251829253544685	-2.775038863359665	0.2411938812184486	-0.6805747390680211	0.3765427005439534	-1.891660210413801	-1.891660210413987	-0.07739505249315237	0.1432085066705329	-0.166042290038259	0.1889783465330388	-0.1750830084682422	0.01862367332721906	-0.003037903379228665	-0.1680002446570247	0.06931359199723908	0.04514268651054391	0.1637325740062375	-9.188960501905804	-20.57422963971855	5.888509516741589	-7.919375421969647	-498.2809075472	-61.75382172487004	-31.98166768058798	0.4563181215216225	0.6830364479676058	-0.836143031093653	-0.4175005852275365	0.5465932815616723	0.1415608163575627	1.441814421659273	-0.3972463047756218	-0.3972463048000116	0.05498782865341666	0.151993481450062	-0.1839368611027773	0.4806018741073295	1.373300076815644e-07	1.456439624040778e-06	-2.963043003998952e-07	3.450428391307748e-07	4.264752741955245e-07	-1.867010244314255e-07	2.723271386178996e-07
1.56	-0.3930408701065398	-0.04118410903176781	0.7859744317470569	1.044407380924863	-0.418274275699986	-0.2674790449055747	-0.2096360201593396	0.6305178438690723	0.6305178438690281	-0.1538180474608366	-0.1386617739710619	0.02439985970286966	-0.05514439366903785	0.9285666995604539	0.4163430053382972	0.5165007090977471	-2.77779264416807	0.2466634446124948	-0.6787236944273817	0.3909112318695057	-1.89478613221054	-1.894786132210889	-0.07665473809004225	0.144897611138033	-0.1677198328727511	0.1938634982507439	-0.1677897399329147	0.01765849166129902	-0.002817229013686147	-0.1658361351008339	0.06788079987696152	0.04361293073984344	0.1578848004487357	-9.435222513641717	-19.90889931250095	5.830596176385786	-7.386425617748422	-494.3773247428979	-61.84892501618015	-32.7622477651735	0.3273204971697689	0.6386543568378591	-0.90103963455238	-0.1122815954496843	0.5587677099133131	0.246470064636497	1.444815009846776	-0.2263833827541981	-0.2263833827541981	0.1100187354785502	0.2096917567319509	-0.1485596601847391	0.5104068973744196	1.158137332849133e-07	1.536909607090013e-06	-1.90583778398568e-07	3.710018573385971e-07	4.144318996774297e-07	-1.556297713412931e-07	2.626818816986606e-07
1.57	-0.3837390879136769	-0.03698937603130576	0.7910934956285549	1.016625912240007	-0.415781224825534	-0.2742551381846153	-0.2056567521596476	0.6115614018861601	0.6115614018861103	-0.1545805454709975	-0.1372051218548596	0.02271539904361627	-0.05318182394264613	0.9316328472751937	0.4225250274139113	0.5072148794844581	-2.778081333654119	0.2519034775630983	-0.6764027716670249	0.4048622316320267	-1.896213800916698	-1.896213800916974	-0.07584693467686984	0.146413645796561	-0.169128642145984	0.1986236060869146	-0.1605044059116195	0.01652728183164594	-0.002636553333377085	-0.1636805852486624	0.06648231792246542	0.04198742646402095	0.1519978204626865	-9.682741323345677	-19.20267753341826	5.76720520414756	-6.798050543859091	-490.5940491193224	-61.87489278412285	-33.51777558244754	0.2726985195603118	0.596271293529324	-0.956853148946067	0.07577534245041502	0.4998801198731548	0.2389514803482344	1.358221993833302	-0.05773863248740108	-0.05773863247657039	0.06615150177512624	0.1195844977904386	-0.1304556907955512	0.4545325870851912	9.617752090563922e-08	1.604077001977754e-06	-1.046977517361517e-07	3.902342332772772e-07	4.041097914278517e-07	-1.269386635157201e-07	2.531619948532014e-07
1.58	-0.374411356921478	-0.0327351637779665	0.7961168015090742	0.9888541442538171	-0.4132371218151272	-0.2810052126163325	-0.2015403782554547	0.5925993272125984	0.5925993272125446	-0.1553349673755077	-0.1357339043566037	0.02101816746564945	-0.05117250916582324	0.9337564594273039	0.4282388559137359	0.4973491089020236	-2.775852504434853	0.2568738718032744	-0.6735199249621476	0.4183324127696925	-1.895912670340489	-1.895912670340692	-0.07503951696215508	0.1478106875501784	-0.1702740166153343	0.2032125083369584	-0.1532190718903488	0.01539607200198279	-0.002455877653017538	-0.1615250353964967	0.06508383596796882	0.04036192218818661	0.1461108404766185	-9.942418359607581	-18.4961757881812	5.705881780790445	-6.181612259758958	-486.9671485189324	-61.94110256909258	-34.24368023188303	0.1388133846438092	0.5450156416800188	-1.017027828381502	0.3912221456133264	0.5048399678278359	0.3588548535406158	1.348651284875681	0.1193764737190621	0.119376473719058	0.1099415957870066	0.1858931757498386	-0.09587269940815066	0.4761657801490619	8.438546232656886e-08	1.646476210083716e-06	-6.497705685782383e-08	3.976844186134258e-07	4.05043634911481e-07	-9.893919575799557e-08	2.46538719942548e-07
